<mxfile host="app.diagrams.net" agent="Mozilla/5.0 (Windows NT 10.0; Win64; x64) AppleWebKit/537.36 (KHTML, like Gecko) Chrome/136.0.0.0 Safari/537.36" version="27.0.3">
  <diagram name="Page-1" id="FQNREuMPyEaIx_OdREhW">
    <mxGraphModel dx="1584" dy="826" grid="1" gridSize="10" guides="1" tooltips="1" connect="1" arrows="1" fold="1" page="0" pageScale="1" pageWidth="850" pageHeight="1100" math="0" shadow="0">
      <root>
        <mxCell id="0" />
        <mxCell id="1" parent="0" />
        <mxCell id="qfDgIEm7hBESt5WeCxpF-39" value="Fabric Lakehouse" style="rounded=0;whiteSpace=wrap;html=1;labelPosition=center;verticalLabelPosition=top;align=center;verticalAlign=bottom;" vertex="1" parent="1">
          <mxGeometry x="470" y="70" width="160" height="570" as="geometry" />
        </mxCell>
        <mxCell id="qfDgIEm7hBESt5WeCxpF-38" value="Source Systems" style="rounded=0;whiteSpace=wrap;html=1;labelPosition=center;verticalLabelPosition=top;align=center;verticalAlign=bottom;" vertex="1" parent="1">
          <mxGeometry x="40" y="70" width="160" height="570" as="geometry" />
        </mxCell>
        <mxCell id="qfDgIEm7hBESt5WeCxpF-66" style="edgeStyle=orthogonalEdgeStyle;rounded=0;orthogonalLoop=1;jettySize=auto;html=1;exitX=1;exitY=0.5;exitDx=0;exitDy=0;entryX=0;entryY=0.5;entryDx=0;entryDy=0;curved=1;" edge="1" parent="1" source="qfDgIEm7hBESt5WeCxpF-1" target="qfDgIEm7hBESt5WeCxpF-59">
          <mxGeometry relative="1" as="geometry" />
        </mxCell>
        <mxCell id="qfDgIEm7hBESt5WeCxpF-1" value="lh__aptean" style="rounded=0;fontSize=12;fontColor=#000000;labelBackgroundColor=none;labelBorderColor=none;whiteSpace=wrap;" vertex="1" parent="1">
          <mxGeometry x="490" y="80" width="120" height="30" as="geometry" />
        </mxCell>
        <mxCell id="qfDgIEm7hBESt5WeCxpF-67" style="edgeStyle=orthogonalEdgeStyle;rounded=0;orthogonalLoop=1;jettySize=auto;html=1;exitX=1;exitY=0.5;exitDx=0;exitDy=0;entryX=0;entryY=0.5;entryDx=0;entryDy=0;curved=1;" edge="1" parent="1" source="qfDgIEm7hBESt5WeCxpF-2" target="qfDgIEm7hBESt5WeCxpF-59">
          <mxGeometry relative="1" as="geometry" />
        </mxCell>
        <mxCell id="qfDgIEm7hBESt5WeCxpF-2" value="lh__epicor" style="rounded=0;fontSize=12;fontColor=#000000;labelBackgroundColor=none;labelBorderColor=none;whiteSpace=wrap;" vertex="1" parent="1">
          <mxGeometry x="490" y="120" width="120" height="30" as="geometry" />
        </mxCell>
        <mxCell id="qfDgIEm7hBESt5WeCxpF-68" style="edgeStyle=orthogonalEdgeStyle;rounded=0;orthogonalLoop=1;jettySize=auto;html=1;exitX=1;exitY=0.5;exitDx=0;exitDy=0;entryX=0;entryY=0.5;entryDx=0;entryDy=0;curved=1;" edge="1" parent="1" source="qfDgIEm7hBESt5WeCxpF-3" target="qfDgIEm7hBESt5WeCxpF-59">
          <mxGeometry relative="1" as="geometry" />
        </mxCell>
        <mxCell id="qfDgIEm7hBESt5WeCxpF-3" value="lh__iqms" style="rounded=0;fontSize=12;fontColor=#000000;labelBackgroundColor=none;labelBorderColor=none;whiteSpace=wrap;" vertex="1" parent="1">
          <mxGeometry x="490" y="160" width="120" height="30" as="geometry" />
        </mxCell>
        <mxCell id="qfDgIEm7hBESt5WeCxpF-69" style="edgeStyle=orthogonalEdgeStyle;rounded=0;orthogonalLoop=1;jettySize=auto;html=1;exitX=1;exitY=0.5;exitDx=0;exitDy=0;entryX=0;entryY=0.5;entryDx=0;entryDy=0;curved=1;" edge="1" parent="1" source="qfDgIEm7hBESt5WeCxpF-4" target="qfDgIEm7hBESt5WeCxpF-59">
          <mxGeometry relative="1" as="geometry" />
        </mxCell>
        <mxCell id="qfDgIEm7hBESt5WeCxpF-4" value="lh__iqms_mebane" style="rounded=0;fontSize=12;fontColor=#000000;labelBackgroundColor=none;labelBorderColor=none;whiteSpace=wrap;" vertex="1" parent="1">
          <mxGeometry x="490" y="200" width="120" height="30" as="geometry" />
        </mxCell>
        <mxCell id="qfDgIEm7hBESt5WeCxpF-70" style="edgeStyle=orthogonalEdgeStyle;rounded=0;orthogonalLoop=1;jettySize=auto;html=1;exitX=1;exitY=0.5;exitDx=0;exitDy=0;entryX=0;entryY=0.5;entryDx=0;entryDy=0;curved=1;" edge="1" parent="1" source="qfDgIEm7hBESt5WeCxpF-5" target="qfDgIEm7hBESt5WeCxpF-59">
          <mxGeometry relative="1" as="geometry" />
        </mxCell>
        <mxCell id="qfDgIEm7hBESt5WeCxpF-5" value="lh__jd_edwards" style="rounded=0;fontSize=12;fontColor=#000000;labelBackgroundColor=none;labelBorderColor=none;whiteSpace=wrap;" vertex="1" parent="1">
          <mxGeometry x="490" y="240" width="120" height="30" as="geometry" />
        </mxCell>
        <mxCell id="qfDgIEm7hBESt5WeCxpF-71" style="edgeStyle=orthogonalEdgeStyle;rounded=0;orthogonalLoop=1;jettySize=auto;html=1;exitX=1;exitY=0.5;exitDx=0;exitDy=0;entryX=0;entryY=0.5;entryDx=0;entryDy=0;curved=1;" edge="1" parent="1" source="qfDgIEm7hBESt5WeCxpF-6" target="qfDgIEm7hBESt5WeCxpF-59">
          <mxGeometry relative="1" as="geometry" />
        </mxCell>
        <mxCell id="qfDgIEm7hBESt5WeCxpF-6" value="lh__jobboss2" style="rounded=0;fontSize=12;fontColor=#000000;labelBackgroundColor=none;labelBorderColor=none;whiteSpace=wrap;" vertex="1" parent="1">
          <mxGeometry x="490" y="280" width="120" height="30" as="geometry" />
        </mxCell>
        <mxCell id="qfDgIEm7hBESt5WeCxpF-72" style="edgeStyle=orthogonalEdgeStyle;rounded=0;orthogonalLoop=1;jettySize=auto;html=1;exitX=1;exitY=0.5;exitDx=0;exitDy=0;entryX=0;entryY=0.5;entryDx=0;entryDy=0;curved=1;" edge="1" parent="1" source="qfDgIEm7hBESt5WeCxpF-7" target="qfDgIEm7hBESt5WeCxpF-59">
          <mxGeometry relative="1" as="geometry" />
        </mxCell>
        <mxCell id="qfDgIEm7hBESt5WeCxpF-7" value="lh__legadmi" style="rounded=0;fontSize=12;fontColor=#000000;labelBackgroundColor=none;labelBorderColor=none;whiteSpace=wrap;" vertex="1" parent="1">
          <mxGeometry x="490" y="320" width="120" height="30" as="geometry" />
        </mxCell>
        <mxCell id="qfDgIEm7hBESt5WeCxpF-73" style="edgeStyle=orthogonalEdgeStyle;rounded=0;orthogonalLoop=1;jettySize=auto;html=1;exitX=1;exitY=0.5;exitDx=0;exitDy=0;entryX=0;entryY=0.5;entryDx=0;entryDy=0;curved=1;" edge="1" parent="1" source="qfDgIEm7hBESt5WeCxpF-8" target="qfDgIEm7hBESt5WeCxpF-59">
          <mxGeometry relative="1" as="geometry" />
        </mxCell>
        <mxCell id="qfDgIEm7hBESt5WeCxpF-8" value="lh__netsuite" style="rounded=0;fontSize=12;fontColor=#000000;labelBackgroundColor=none;labelBorderColor=none;whiteSpace=wrap;" vertex="1" parent="1">
          <mxGeometry x="490" y="360" width="120" height="30" as="geometry" />
        </mxCell>
        <mxCell id="qfDgIEm7hBESt5WeCxpF-74" style="edgeStyle=orthogonalEdgeStyle;rounded=0;orthogonalLoop=1;jettySize=auto;html=1;exitX=1;exitY=0.5;exitDx=0;exitDy=0;entryX=0;entryY=0.5;entryDx=0;entryDy=0;curved=1;" edge="1" parent="1" source="qfDgIEm7hBESt5WeCxpF-9" target="qfDgIEm7hBESt5WeCxpF-59">
          <mxGeometry relative="1" as="geometry" />
        </mxCell>
        <mxCell id="qfDgIEm7hBESt5WeCxpF-9" value="lh__paylocity" style="rounded=0;fontSize=12;fontColor=#000000;labelBackgroundColor=none;labelBorderColor=none;whiteSpace=wrap;" vertex="1" parent="1">
          <mxGeometry x="490" y="400" width="120" height="30" as="geometry" />
        </mxCell>
        <mxCell id="qfDgIEm7hBESt5WeCxpF-75" style="edgeStyle=orthogonalEdgeStyle;rounded=0;orthogonalLoop=1;jettySize=auto;html=1;exitX=1;exitY=0.5;exitDx=0;exitDy=0;entryX=0;entryY=0.5;entryDx=0;entryDy=0;curved=1;" edge="1" parent="1" source="qfDgIEm7hBESt5WeCxpF-10" target="qfDgIEm7hBESt5WeCxpF-59">
          <mxGeometry relative="1" as="geometry" />
        </mxCell>
        <mxCell id="qfDgIEm7hBESt5WeCxpF-10" value="lh__sage" style="rounded=0;fontSize=12;fontColor=#000000;labelBackgroundColor=none;labelBorderColor=none;whiteSpace=wrap;" vertex="1" parent="1">
          <mxGeometry x="490" y="440" width="120" height="30" as="geometry" />
        </mxCell>
        <mxCell id="qfDgIEm7hBESt5WeCxpF-77" style="edgeStyle=orthogonalEdgeStyle;rounded=0;orthogonalLoop=1;jettySize=auto;html=1;exitX=1;exitY=0.5;exitDx=0;exitDy=0;entryX=0;entryY=0.5;entryDx=0;entryDy=0;curved=1;" edge="1" parent="1" source="qfDgIEm7hBESt5WeCxpF-11" target="qfDgIEm7hBESt5WeCxpF-59">
          <mxGeometry relative="1" as="geometry" />
        </mxCell>
        <mxCell id="qfDgIEm7hBESt5WeCxpF-11" value="lh__softland" style="rounded=0;fontSize=12;fontColor=#000000;labelBackgroundColor=none;labelBorderColor=none;whiteSpace=wrap;" vertex="1" parent="1">
          <mxGeometry x="490" y="520" width="120" height="30" as="geometry" />
        </mxCell>
        <mxCell id="qfDgIEm7hBESt5WeCxpF-76" style="edgeStyle=orthogonalEdgeStyle;rounded=0;orthogonalLoop=1;jettySize=auto;html=1;exitX=1;exitY=0.5;exitDx=0;exitDy=0;entryX=0;entryY=0.5;entryDx=0;entryDy=0;curved=1;" edge="1" parent="1" source="qfDgIEm7hBESt5WeCxpF-12" target="qfDgIEm7hBESt5WeCxpF-59">
          <mxGeometry relative="1" as="geometry" />
        </mxCell>
        <mxCell id="qfDgIEm7hBESt5WeCxpF-12" value="lh__sharepoint" style="rounded=0;fontSize=12;fontColor=#000000;labelBackgroundColor=none;labelBorderColor=none;whiteSpace=wrap;" vertex="1" parent="1">
          <mxGeometry x="490" y="480" width="120" height="30" as="geometry" />
        </mxCell>
        <mxCell id="qfDgIEm7hBESt5WeCxpF-26" style="edgeStyle=orthogonalEdgeStyle;rounded=0;orthogonalLoop=1;jettySize=auto;html=1;exitX=1;exitY=0.5;exitDx=0;exitDy=0;entryX=0;entryY=0.5;entryDx=0;entryDy=0;curved=1;" edge="1" parent="1" source="qfDgIEm7hBESt5WeCxpF-13" target="qfDgIEm7hBESt5WeCxpF-25">
          <mxGeometry relative="1" as="geometry" />
        </mxCell>
        <mxCell id="qfDgIEm7hBESt5WeCxpF-13" value="Aptean" style="rounded=0;fontSize=12;fontColor=#000000;labelBackgroundColor=none;labelBorderColor=none;whiteSpace=wrap;" vertex="1" parent="1">
          <mxGeometry x="60" y="80" width="120" height="30" as="geometry" />
        </mxCell>
        <mxCell id="qfDgIEm7hBESt5WeCxpF-27" style="edgeStyle=orthogonalEdgeStyle;rounded=0;orthogonalLoop=1;jettySize=auto;html=1;exitX=1;exitY=0.5;exitDx=0;exitDy=0;entryX=0;entryY=0.5;entryDx=0;entryDy=0;curved=1;" edge="1" parent="1" source="qfDgIEm7hBESt5WeCxpF-14" target="qfDgIEm7hBESt5WeCxpF-25">
          <mxGeometry relative="1" as="geometry" />
        </mxCell>
        <mxCell id="qfDgIEm7hBESt5WeCxpF-14" value="Epicor" style="rounded=0;fontSize=12;fontColor=#000000;labelBackgroundColor=none;labelBorderColor=none;whiteSpace=wrap;" vertex="1" parent="1">
          <mxGeometry x="60" y="120" width="120" height="30" as="geometry" />
        </mxCell>
        <mxCell id="qfDgIEm7hBESt5WeCxpF-28" style="edgeStyle=orthogonalEdgeStyle;rounded=0;orthogonalLoop=1;jettySize=auto;html=1;exitX=1;exitY=0.5;exitDx=0;exitDy=0;entryX=0;entryY=0.5;entryDx=0;entryDy=0;curved=1;" edge="1" parent="1" source="qfDgIEm7hBESt5WeCxpF-15" target="qfDgIEm7hBESt5WeCxpF-25">
          <mxGeometry relative="1" as="geometry" />
        </mxCell>
        <mxCell id="qfDgIEm7hBESt5WeCxpF-15" value="IQMS" style="rounded=0;fontSize=12;fontColor=#000000;labelBackgroundColor=none;labelBorderColor=none;whiteSpace=wrap;" vertex="1" parent="1">
          <mxGeometry x="60" y="160" width="120" height="30" as="geometry" />
        </mxCell>
        <mxCell id="qfDgIEm7hBESt5WeCxpF-29" style="edgeStyle=orthogonalEdgeStyle;rounded=0;orthogonalLoop=1;jettySize=auto;html=1;exitX=1;exitY=0.5;exitDx=0;exitDy=0;entryX=0;entryY=0.5;entryDx=0;entryDy=0;curved=1;" edge="1" parent="1" source="qfDgIEm7hBESt5WeCxpF-16" target="qfDgIEm7hBESt5WeCxpF-25">
          <mxGeometry relative="1" as="geometry" />
        </mxCell>
        <mxCell id="qfDgIEm7hBESt5WeCxpF-16" value="IQMS Mebane" style="rounded=0;fontSize=12;fontColor=#000000;labelBackgroundColor=none;labelBorderColor=none;whiteSpace=wrap;" vertex="1" parent="1">
          <mxGeometry x="60" y="200" width="120" height="30" as="geometry" />
        </mxCell>
        <mxCell id="qfDgIEm7hBESt5WeCxpF-30" style="edgeStyle=orthogonalEdgeStyle;rounded=0;orthogonalLoop=1;jettySize=auto;html=1;exitX=1;exitY=0.5;exitDx=0;exitDy=0;entryX=0;entryY=0.5;entryDx=0;entryDy=0;curved=1;" edge="1" parent="1" source="qfDgIEm7hBESt5WeCxpF-17" target="qfDgIEm7hBESt5WeCxpF-25">
          <mxGeometry relative="1" as="geometry" />
        </mxCell>
        <mxCell id="qfDgIEm7hBESt5WeCxpF-17" value="JD Edwards" style="rounded=0;fontSize=12;fontColor=#000000;labelBackgroundColor=none;labelBorderColor=none;whiteSpace=wrap;" vertex="1" parent="1">
          <mxGeometry x="60" y="240" width="120" height="30" as="geometry" />
        </mxCell>
        <mxCell id="qfDgIEm7hBESt5WeCxpF-31" style="edgeStyle=orthogonalEdgeStyle;rounded=0;orthogonalLoop=1;jettySize=auto;html=1;exitX=1;exitY=0.5;exitDx=0;exitDy=0;entryX=0;entryY=0.5;entryDx=0;entryDy=0;curved=1;" edge="1" parent="1" source="qfDgIEm7hBESt5WeCxpF-18" target="qfDgIEm7hBESt5WeCxpF-25">
          <mxGeometry relative="1" as="geometry" />
        </mxCell>
        <mxCell id="qfDgIEm7hBESt5WeCxpF-18" value="Job Boss" style="rounded=0;fontSize=12;fontColor=#000000;labelBackgroundColor=none;labelBorderColor=none;whiteSpace=wrap;" vertex="1" parent="1">
          <mxGeometry x="60" y="280" width="120" height="30" as="geometry" />
        </mxCell>
        <mxCell id="qfDgIEm7hBESt5WeCxpF-32" style="edgeStyle=orthogonalEdgeStyle;rounded=0;orthogonalLoop=1;jettySize=auto;html=1;exitX=1;exitY=0.5;exitDx=0;exitDy=0;entryX=0;entryY=0.5;entryDx=0;entryDy=0;curved=1;" edge="1" parent="1" source="qfDgIEm7hBESt5WeCxpF-19" target="qfDgIEm7hBESt5WeCxpF-25">
          <mxGeometry relative="1" as="geometry" />
        </mxCell>
        <mxCell id="qfDgIEm7hBESt5WeCxpF-19" value="Legadmi" style="rounded=0;fontSize=12;fontColor=#000000;labelBackgroundColor=none;labelBorderColor=none;whiteSpace=wrap;" vertex="1" parent="1">
          <mxGeometry x="60" y="320" width="120" height="30" as="geometry" />
        </mxCell>
        <mxCell id="qfDgIEm7hBESt5WeCxpF-33" style="edgeStyle=orthogonalEdgeStyle;rounded=0;orthogonalLoop=1;jettySize=auto;html=1;exitX=1;exitY=0.5;exitDx=0;exitDy=0;entryX=0;entryY=0.5;entryDx=0;entryDy=0;curved=1;" edge="1" parent="1" source="qfDgIEm7hBESt5WeCxpF-20" target="qfDgIEm7hBESt5WeCxpF-25">
          <mxGeometry relative="1" as="geometry" />
        </mxCell>
        <mxCell id="qfDgIEm7hBESt5WeCxpF-20" value="Netsuite" style="rounded=0;fontSize=12;fontColor=#000000;labelBackgroundColor=none;labelBorderColor=none;whiteSpace=wrap;" vertex="1" parent="1">
          <mxGeometry x="60" y="360" width="120" height="30" as="geometry" />
        </mxCell>
        <mxCell id="qfDgIEm7hBESt5WeCxpF-34" style="edgeStyle=orthogonalEdgeStyle;rounded=0;orthogonalLoop=1;jettySize=auto;html=1;exitX=1;exitY=0.5;exitDx=0;exitDy=0;entryX=0;entryY=0.5;entryDx=0;entryDy=0;curved=1;" edge="1" parent="1" source="qfDgIEm7hBESt5WeCxpF-21" target="qfDgIEm7hBESt5WeCxpF-25">
          <mxGeometry relative="1" as="geometry" />
        </mxCell>
        <mxCell id="qfDgIEm7hBESt5WeCxpF-21" value="Paylocity" style="rounded=0;fontSize=12;fontColor=#000000;labelBackgroundColor=none;labelBorderColor=none;whiteSpace=wrap;" vertex="1" parent="1">
          <mxGeometry x="60" y="400" width="120" height="30" as="geometry" />
        </mxCell>
        <mxCell id="qfDgIEm7hBESt5WeCxpF-35" style="edgeStyle=orthogonalEdgeStyle;rounded=0;orthogonalLoop=1;jettySize=auto;html=1;exitX=1;exitY=0.5;exitDx=0;exitDy=0;entryX=0;entryY=0.5;entryDx=0;entryDy=0;curved=1;" edge="1" parent="1" source="qfDgIEm7hBESt5WeCxpF-22" target="qfDgIEm7hBESt5WeCxpF-25">
          <mxGeometry relative="1" as="geometry" />
        </mxCell>
        <mxCell id="qfDgIEm7hBESt5WeCxpF-22" value="Sage" style="rounded=0;fontSize=12;fontColor=#000000;labelBackgroundColor=none;labelBorderColor=none;whiteSpace=wrap;" vertex="1" parent="1">
          <mxGeometry x="60" y="440" width="120" height="30" as="geometry" />
        </mxCell>
        <mxCell id="qfDgIEm7hBESt5WeCxpF-37" style="edgeStyle=orthogonalEdgeStyle;rounded=0;orthogonalLoop=1;jettySize=auto;html=1;exitX=1;exitY=0.5;exitDx=0;exitDy=0;entryX=0;entryY=0.5;entryDx=0;entryDy=0;curved=1;" edge="1" parent="1" source="qfDgIEm7hBESt5WeCxpF-23" target="qfDgIEm7hBESt5WeCxpF-25">
          <mxGeometry relative="1" as="geometry" />
        </mxCell>
        <mxCell id="qfDgIEm7hBESt5WeCxpF-23" value="Softland" style="rounded=0;fontSize=12;fontColor=#000000;labelBackgroundColor=none;labelBorderColor=none;whiteSpace=wrap;" vertex="1" parent="1">
          <mxGeometry x="60" y="520" width="120" height="30" as="geometry" />
        </mxCell>
        <mxCell id="qfDgIEm7hBESt5WeCxpF-36" style="edgeStyle=orthogonalEdgeStyle;rounded=0;orthogonalLoop=1;jettySize=auto;html=1;exitX=1;exitY=0.5;exitDx=0;exitDy=0;entryX=0;entryY=0.5;entryDx=0;entryDy=0;curved=1;" edge="1" parent="1" source="qfDgIEm7hBESt5WeCxpF-24" target="qfDgIEm7hBESt5WeCxpF-25">
          <mxGeometry relative="1" as="geometry" />
        </mxCell>
        <mxCell id="qfDgIEm7hBESt5WeCxpF-24" value="SharePoint" style="rounded=0;fontSize=12;fontColor=#000000;labelBackgroundColor=none;labelBorderColor=none;whiteSpace=wrap;" vertex="1" parent="1">
          <mxGeometry x="60" y="480" width="120" height="30" as="geometry" />
        </mxCell>
        <mxCell id="qfDgIEm7hBESt5WeCxpF-40" style="edgeStyle=orthogonalEdgeStyle;rounded=0;orthogonalLoop=1;jettySize=auto;html=1;exitX=1;exitY=0.5;exitDx=0;exitDy=0;entryX=0;entryY=0.5;entryDx=0;entryDy=0;curved=1;" edge="1" parent="1" source="qfDgIEm7hBESt5WeCxpF-25" target="qfDgIEm7hBESt5WeCxpF-1">
          <mxGeometry relative="1" as="geometry" />
        </mxCell>
        <mxCell id="qfDgIEm7hBESt5WeCxpF-41" style="edgeStyle=orthogonalEdgeStyle;rounded=0;orthogonalLoop=1;jettySize=auto;html=1;exitX=1;exitY=0.5;exitDx=0;exitDy=0;entryX=0;entryY=0.5;entryDx=0;entryDy=0;curved=1;" edge="1" parent="1" source="qfDgIEm7hBESt5WeCxpF-25" target="qfDgIEm7hBESt5WeCxpF-2">
          <mxGeometry relative="1" as="geometry" />
        </mxCell>
        <mxCell id="qfDgIEm7hBESt5WeCxpF-42" style="edgeStyle=orthogonalEdgeStyle;rounded=0;orthogonalLoop=1;jettySize=auto;html=1;exitX=1;exitY=0.5;exitDx=0;exitDy=0;entryX=0;entryY=0.5;entryDx=0;entryDy=0;curved=1;" edge="1" parent="1" source="qfDgIEm7hBESt5WeCxpF-25" target="qfDgIEm7hBESt5WeCxpF-3">
          <mxGeometry relative="1" as="geometry" />
        </mxCell>
        <mxCell id="qfDgIEm7hBESt5WeCxpF-43" style="edgeStyle=orthogonalEdgeStyle;rounded=0;orthogonalLoop=1;jettySize=auto;html=1;exitX=1;exitY=0.5;exitDx=0;exitDy=0;entryX=0;entryY=0.5;entryDx=0;entryDy=0;curved=1;" edge="1" parent="1" source="qfDgIEm7hBESt5WeCxpF-25" target="qfDgIEm7hBESt5WeCxpF-4">
          <mxGeometry relative="1" as="geometry" />
        </mxCell>
        <mxCell id="qfDgIEm7hBESt5WeCxpF-44" style="edgeStyle=orthogonalEdgeStyle;rounded=0;orthogonalLoop=1;jettySize=auto;html=1;exitX=1;exitY=0.5;exitDx=0;exitDy=0;entryX=0;entryY=0.5;entryDx=0;entryDy=0;curved=1;" edge="1" parent="1" source="qfDgIEm7hBESt5WeCxpF-25" target="qfDgIEm7hBESt5WeCxpF-5">
          <mxGeometry relative="1" as="geometry" />
        </mxCell>
        <mxCell id="qfDgIEm7hBESt5WeCxpF-45" style="edgeStyle=orthogonalEdgeStyle;rounded=0;orthogonalLoop=1;jettySize=auto;html=1;exitX=1;exitY=0.5;exitDx=0;exitDy=0;entryX=0;entryY=0.5;entryDx=0;entryDy=0;curved=1;" edge="1" parent="1" source="qfDgIEm7hBESt5WeCxpF-25" target="qfDgIEm7hBESt5WeCxpF-6">
          <mxGeometry relative="1" as="geometry" />
        </mxCell>
        <mxCell id="qfDgIEm7hBESt5WeCxpF-46" style="edgeStyle=orthogonalEdgeStyle;rounded=0;orthogonalLoop=1;jettySize=auto;html=1;exitX=1;exitY=0.5;exitDx=0;exitDy=0;entryX=0;entryY=0.5;entryDx=0;entryDy=0;curved=1;" edge="1" parent="1" source="qfDgIEm7hBESt5WeCxpF-25" target="qfDgIEm7hBESt5WeCxpF-7">
          <mxGeometry relative="1" as="geometry" />
        </mxCell>
        <mxCell id="qfDgIEm7hBESt5WeCxpF-47" style="edgeStyle=orthogonalEdgeStyle;rounded=0;orthogonalLoop=1;jettySize=auto;html=1;exitX=1;exitY=0.5;exitDx=0;exitDy=0;entryX=0;entryY=0.5;entryDx=0;entryDy=0;curved=1;" edge="1" parent="1" source="qfDgIEm7hBESt5WeCxpF-25" target="qfDgIEm7hBESt5WeCxpF-8">
          <mxGeometry relative="1" as="geometry" />
        </mxCell>
        <mxCell id="qfDgIEm7hBESt5WeCxpF-48" style="edgeStyle=orthogonalEdgeStyle;rounded=0;orthogonalLoop=1;jettySize=auto;html=1;exitX=1;exitY=0.5;exitDx=0;exitDy=0;entryX=0;entryY=0.5;entryDx=0;entryDy=0;curved=1;" edge="1" parent="1" source="qfDgIEm7hBESt5WeCxpF-25" target="qfDgIEm7hBESt5WeCxpF-9">
          <mxGeometry relative="1" as="geometry" />
        </mxCell>
        <mxCell id="qfDgIEm7hBESt5WeCxpF-49" style="edgeStyle=orthogonalEdgeStyle;rounded=0;orthogonalLoop=1;jettySize=auto;html=1;exitX=1;exitY=0.5;exitDx=0;exitDy=0;entryX=0;entryY=0.5;entryDx=0;entryDy=0;curved=1;" edge="1" parent="1" source="qfDgIEm7hBESt5WeCxpF-25" target="qfDgIEm7hBESt5WeCxpF-10">
          <mxGeometry relative="1" as="geometry" />
        </mxCell>
        <mxCell id="qfDgIEm7hBESt5WeCxpF-50" style="edgeStyle=orthogonalEdgeStyle;rounded=0;orthogonalLoop=1;jettySize=auto;html=1;exitX=1;exitY=0.5;exitDx=0;exitDy=0;entryX=0;entryY=0.5;entryDx=0;entryDy=0;curved=1;" edge="1" parent="1" source="qfDgIEm7hBESt5WeCxpF-25" target="qfDgIEm7hBESt5WeCxpF-12">
          <mxGeometry relative="1" as="geometry" />
        </mxCell>
        <mxCell id="qfDgIEm7hBESt5WeCxpF-51" style="edgeStyle=orthogonalEdgeStyle;rounded=0;orthogonalLoop=1;jettySize=auto;html=1;exitX=1;exitY=0.5;exitDx=0;exitDy=0;entryX=0;entryY=0.5;entryDx=0;entryDy=0;curved=1;" edge="1" parent="1" source="qfDgIEm7hBESt5WeCxpF-25" target="qfDgIEm7hBESt5WeCxpF-11">
          <mxGeometry relative="1" as="geometry" />
        </mxCell>
        <mxCell id="qfDgIEm7hBESt5WeCxpF-214" style="edgeStyle=orthogonalEdgeStyle;rounded=0;orthogonalLoop=1;jettySize=auto;html=1;exitX=1;exitY=0.5;exitDx=0;exitDy=0;entryX=0;entryY=0.5;entryDx=0;entryDy=0;curved=1;" edge="1" parent="1" source="qfDgIEm7hBESt5WeCxpF-25" target="qfDgIEm7hBESt5WeCxpF-212">
          <mxGeometry relative="1" as="geometry" />
        </mxCell>
        <mxCell id="qfDgIEm7hBESt5WeCxpF-215" style="edgeStyle=orthogonalEdgeStyle;rounded=0;orthogonalLoop=1;jettySize=auto;html=1;exitX=1;exitY=0.5;exitDx=0;exitDy=0;entryX=0;entryY=0.5;entryDx=0;entryDy=0;curved=1;" edge="1" parent="1" source="qfDgIEm7hBESt5WeCxpF-25" target="qfDgIEm7hBESt5WeCxpF-213">
          <mxGeometry relative="1" as="geometry" />
        </mxCell>
        <mxCell id="qfDgIEm7hBESt5WeCxpF-25" value="Fabric Pipeline&lt;div&gt;(Copy Data&lt;/div&gt;" style="shape=process;whiteSpace=wrap;html=1;backgroundOutline=1;" vertex="1" parent="1">
          <mxGeometry x="270" y="265" width="120" height="60" as="geometry" />
        </mxCell>
        <mxCell id="qfDgIEm7hBESt5WeCxpF-52" value="Fabric Warehouse" style="swimlane;whiteSpace=wrap;html=1;" vertex="1" parent="1">
          <mxGeometry x="730" y="160" width="200" height="350" as="geometry" />
        </mxCell>
        <mxCell id="qfDgIEm7hBESt5WeCxpF-63" style="edgeStyle=orthogonalEdgeStyle;rounded=0;orthogonalLoop=1;jettySize=auto;html=1;exitX=0.5;exitY=1;exitDx=0;exitDy=0;entryX=0.5;entryY=0;entryDx=0;entryDy=0;" edge="1" parent="qfDgIEm7hBESt5WeCxpF-52" source="qfDgIEm7hBESt5WeCxpF-59" target="qfDgIEm7hBESt5WeCxpF-60">
          <mxGeometry relative="1" as="geometry" />
        </mxCell>
        <mxCell id="qfDgIEm7hBESt5WeCxpF-59" value="&lt;h5 style=&quot;margin-top: 0px; margin-bottom: 0px;&quot;&gt;Source Schema&lt;/h5&gt;&lt;div&gt;&lt;h5 style=&quot;margin-top: 0px; margin-bottom: 0px;&quot;&gt;&lt;span style=&quot;font-weight: normal;&quot;&gt;Contains the base tables that are extracted from each system to apply basic type changes and aliasing.&lt;/span&gt;&lt;/h5&gt;&lt;/div&gt;" style="text;html=1;whiteSpace=wrap;overflow=hidden;rounded=0;fillColor=#f5f5f5;fontColor=#333333;strokeColor=#666666;flipV=1;" vertex="1" parent="qfDgIEm7hBESt5WeCxpF-52">
          <mxGeometry x="15" y="30" width="170" height="60" as="geometry" />
        </mxCell>
        <mxCell id="qfDgIEm7hBESt5WeCxpF-64" style="edgeStyle=orthogonalEdgeStyle;rounded=0;orthogonalLoop=1;jettySize=auto;html=1;" edge="1" parent="qfDgIEm7hBESt5WeCxpF-52" source="qfDgIEm7hBESt5WeCxpF-60" target="qfDgIEm7hBESt5WeCxpF-61">
          <mxGeometry relative="1" as="geometry" />
        </mxCell>
        <mxCell id="qfDgIEm7hBESt5WeCxpF-60" value="&lt;h5 style=&quot;margin-top: 0px; margin-bottom: 0px;&quot;&gt;Staging Schema&lt;/h5&gt;&lt;div&gt;&lt;h5 style=&quot;margin-top: 0px; margin-bottom: 0px;&quot;&gt;&lt;span style=&quot;font-weight: normal;&quot;&gt;Contains cleaned source tables and transformations for source specific logic.&lt;/span&gt;&lt;/h5&gt;&lt;/div&gt;" style="text;html=1;whiteSpace=wrap;overflow=hidden;rounded=0;fillColor=#f5f5f5;fontColor=#333333;strokeColor=#666666;flipV=1;" vertex="1" parent="qfDgIEm7hBESt5WeCxpF-52">
          <mxGeometry x="15" y="113" width="170" height="60" as="geometry" />
        </mxCell>
        <mxCell id="qfDgIEm7hBESt5WeCxpF-65" style="edgeStyle=orthogonalEdgeStyle;rounded=0;orthogonalLoop=1;jettySize=auto;html=1;exitX=0.5;exitY=1;exitDx=0;exitDy=0;entryX=0.5;entryY=0;entryDx=0;entryDy=0;" edge="1" parent="qfDgIEm7hBESt5WeCxpF-52" source="qfDgIEm7hBESt5WeCxpF-61" target="qfDgIEm7hBESt5WeCxpF-62">
          <mxGeometry relative="1" as="geometry" />
        </mxCell>
        <mxCell id="qfDgIEm7hBESt5WeCxpF-61" value="&lt;h5 style=&quot;margin-top: 0px; margin-bottom: 0px;&quot;&gt;Source DW Schema&lt;/h5&gt;&lt;div&gt;&lt;h5 style=&quot;margin-top: 0px; margin-bottom: 0px;&quot;&gt;&lt;span style=&quot;font-weight: normal;&quot;&gt;Contains modeled data for a single source system.&lt;/span&gt;&lt;/h5&gt;&lt;/div&gt;" style="text;html=1;whiteSpace=wrap;overflow=hidden;rounded=0;fillColor=#f5f5f5;fontColor=#333333;strokeColor=#666666;flipV=1;" vertex="1" parent="qfDgIEm7hBESt5WeCxpF-52">
          <mxGeometry x="15" y="197" width="170" height="60" as="geometry" />
        </mxCell>
        <mxCell id="qfDgIEm7hBESt5WeCxpF-62" value="&lt;h5 style=&quot;margin-top: 0px; margin-bottom: 0px;&quot;&gt;DW Schema&lt;/h5&gt;&lt;div&gt;&lt;h5 style=&quot;margin-top: 0px; margin-bottom: 0px;&quot;&gt;&lt;span style=&quot;font-weight: normal;&quot;&gt;Contains consolidated data models for applicable source systems.&lt;/span&gt;&lt;/h5&gt;&lt;/div&gt;" style="text;html=1;whiteSpace=wrap;overflow=hidden;rounded=0;fillColor=#f5f5f5;fontColor=#333333;strokeColor=#666666;flipV=1;" vertex="1" parent="qfDgIEm7hBESt5WeCxpF-52">
          <mxGeometry x="15" y="280" width="170" height="60" as="geometry" />
        </mxCell>
        <mxCell id="qfDgIEm7hBESt5WeCxpF-201" style="edgeStyle=orthogonalEdgeStyle;rounded=0;orthogonalLoop=1;jettySize=auto;html=1;exitX=1;exitY=0.5;exitDx=0;exitDy=0;entryX=0;entryY=0.5;entryDx=0;entryDy=0;curved=1;" edge="1" parent="1" source="qfDgIEm7hBESt5WeCxpF-79" target="qfDgIEm7hBESt5WeCxpF-192">
          <mxGeometry relative="1" as="geometry" />
        </mxCell>
        <mxCell id="qfDgIEm7hBESt5WeCxpF-202" style="edgeStyle=orthogonalEdgeStyle;rounded=0;orthogonalLoop=1;jettySize=auto;html=1;exitX=1;exitY=0.5;exitDx=0;exitDy=0;entryX=0;entryY=0.5;entryDx=0;entryDy=0;curved=1;" edge="1" parent="1" source="qfDgIEm7hBESt5WeCxpF-79" target="qfDgIEm7hBESt5WeCxpF-183">
          <mxGeometry relative="1" as="geometry" />
        </mxCell>
        <mxCell id="qfDgIEm7hBESt5WeCxpF-203" style="edgeStyle=orthogonalEdgeStyle;rounded=0;orthogonalLoop=1;jettySize=auto;html=1;exitX=1;exitY=0.5;exitDx=0;exitDy=0;entryX=0;entryY=0.5;entryDx=0;entryDy=0;curved=1;" edge="1" parent="1" source="qfDgIEm7hBESt5WeCxpF-79" target="qfDgIEm7hBESt5WeCxpF-195">
          <mxGeometry relative="1" as="geometry" />
        </mxCell>
        <mxCell id="qfDgIEm7hBESt5WeCxpF-79" value="Central Semantic Model" style="swimlane;whiteSpace=wrap;html=1;" vertex="1" parent="1">
          <mxGeometry x="1000" y="200" width="320" height="300" as="geometry" />
        </mxCell>
        <mxCell id="qfDgIEm7hBESt5WeCxpF-143" value="" style="group" vertex="1" connectable="0" parent="qfDgIEm7hBESt5WeCxpF-79">
          <mxGeometry x="20" y="35" width="90" height="70" as="geometry" />
        </mxCell>
        <mxCell id="qfDgIEm7hBESt5WeCxpF-104" value="dim" style="rounded=0;whiteSpace=wrap;html=1;" vertex="1" parent="qfDgIEm7hBESt5WeCxpF-143">
          <mxGeometry width="90" height="30" as="geometry" />
        </mxCell>
        <mxCell id="qfDgIEm7hBESt5WeCxpF-105" value="" style="rounded=0;whiteSpace=wrap;html=1;" vertex="1" parent="qfDgIEm7hBESt5WeCxpF-143">
          <mxGeometry y="30" width="30" height="20" as="geometry" />
        </mxCell>
        <mxCell id="qfDgIEm7hBESt5WeCxpF-106" value="" style="rounded=0;whiteSpace=wrap;html=1;" vertex="1" parent="qfDgIEm7hBESt5WeCxpF-143">
          <mxGeometry x="30" y="30" width="30" height="20" as="geometry" />
        </mxCell>
        <mxCell id="qfDgIEm7hBESt5WeCxpF-107" value="" style="rounded=0;whiteSpace=wrap;html=1;" vertex="1" parent="qfDgIEm7hBESt5WeCxpF-143">
          <mxGeometry x="60" y="30" width="30" height="20" as="geometry" />
        </mxCell>
        <mxCell id="qfDgIEm7hBESt5WeCxpF-108" value="" style="rounded=0;whiteSpace=wrap;html=1;" vertex="1" parent="qfDgIEm7hBESt5WeCxpF-143">
          <mxGeometry y="50" width="30" height="20" as="geometry" />
        </mxCell>
        <mxCell id="qfDgIEm7hBESt5WeCxpF-109" value="" style="rounded=0;whiteSpace=wrap;html=1;" vertex="1" parent="qfDgIEm7hBESt5WeCxpF-143">
          <mxGeometry x="30" y="50" width="30" height="20" as="geometry" />
        </mxCell>
        <mxCell id="qfDgIEm7hBESt5WeCxpF-110" value="" style="rounded=0;whiteSpace=wrap;html=1;" vertex="1" parent="qfDgIEm7hBESt5WeCxpF-143">
          <mxGeometry x="60" y="50" width="30" height="20" as="geometry" />
        </mxCell>
        <mxCell id="qfDgIEm7hBESt5WeCxpF-144" value="" style="group" vertex="1" connectable="0" parent="qfDgIEm7hBESt5WeCxpF-79">
          <mxGeometry x="20" y="210" width="90" height="70" as="geometry" />
        </mxCell>
        <mxCell id="qfDgIEm7hBESt5WeCxpF-145" value="dim" style="rounded=0;whiteSpace=wrap;html=1;" vertex="1" parent="qfDgIEm7hBESt5WeCxpF-144">
          <mxGeometry width="90" height="30" as="geometry" />
        </mxCell>
        <mxCell id="qfDgIEm7hBESt5WeCxpF-146" value="" style="rounded=0;whiteSpace=wrap;html=1;" vertex="1" parent="qfDgIEm7hBESt5WeCxpF-144">
          <mxGeometry y="30" width="30" height="20" as="geometry" />
        </mxCell>
        <mxCell id="qfDgIEm7hBESt5WeCxpF-147" value="" style="rounded=0;whiteSpace=wrap;html=1;" vertex="1" parent="qfDgIEm7hBESt5WeCxpF-144">
          <mxGeometry x="30" y="30" width="30" height="20" as="geometry" />
        </mxCell>
        <mxCell id="qfDgIEm7hBESt5WeCxpF-148" value="" style="rounded=0;whiteSpace=wrap;html=1;" vertex="1" parent="qfDgIEm7hBESt5WeCxpF-144">
          <mxGeometry x="60" y="30" width="30" height="20" as="geometry" />
        </mxCell>
        <mxCell id="qfDgIEm7hBESt5WeCxpF-149" value="" style="rounded=0;whiteSpace=wrap;html=1;" vertex="1" parent="qfDgIEm7hBESt5WeCxpF-144">
          <mxGeometry y="50" width="30" height="20" as="geometry" />
        </mxCell>
        <mxCell id="qfDgIEm7hBESt5WeCxpF-150" value="" style="rounded=0;whiteSpace=wrap;html=1;" vertex="1" parent="qfDgIEm7hBESt5WeCxpF-144">
          <mxGeometry x="30" y="50" width="30" height="20" as="geometry" />
        </mxCell>
        <mxCell id="qfDgIEm7hBESt5WeCxpF-151" value="" style="rounded=0;whiteSpace=wrap;html=1;" vertex="1" parent="qfDgIEm7hBESt5WeCxpF-144">
          <mxGeometry x="60" y="50" width="30" height="20" as="geometry" />
        </mxCell>
        <mxCell id="qfDgIEm7hBESt5WeCxpF-160" value="" style="group" vertex="1" connectable="0" parent="qfDgIEm7hBESt5WeCxpF-79">
          <mxGeometry x="210" y="210" width="90" height="70" as="geometry" />
        </mxCell>
        <mxCell id="qfDgIEm7hBESt5WeCxpF-161" value="dim" style="rounded=0;whiteSpace=wrap;html=1;" vertex="1" parent="qfDgIEm7hBESt5WeCxpF-160">
          <mxGeometry width="90" height="30" as="geometry" />
        </mxCell>
        <mxCell id="qfDgIEm7hBESt5WeCxpF-162" value="" style="rounded=0;whiteSpace=wrap;html=1;" vertex="1" parent="qfDgIEm7hBESt5WeCxpF-160">
          <mxGeometry y="30" width="30" height="20" as="geometry" />
        </mxCell>
        <mxCell id="qfDgIEm7hBESt5WeCxpF-163" value="" style="rounded=0;whiteSpace=wrap;html=1;" vertex="1" parent="qfDgIEm7hBESt5WeCxpF-160">
          <mxGeometry x="30" y="30" width="30" height="20" as="geometry" />
        </mxCell>
        <mxCell id="qfDgIEm7hBESt5WeCxpF-164" value="" style="rounded=0;whiteSpace=wrap;html=1;" vertex="1" parent="qfDgIEm7hBESt5WeCxpF-160">
          <mxGeometry x="60" y="30" width="30" height="20" as="geometry" />
        </mxCell>
        <mxCell id="qfDgIEm7hBESt5WeCxpF-165" value="" style="rounded=0;whiteSpace=wrap;html=1;" vertex="1" parent="qfDgIEm7hBESt5WeCxpF-160">
          <mxGeometry y="50" width="30" height="20" as="geometry" />
        </mxCell>
        <mxCell id="qfDgIEm7hBESt5WeCxpF-166" value="" style="rounded=0;whiteSpace=wrap;html=1;" vertex="1" parent="qfDgIEm7hBESt5WeCxpF-160">
          <mxGeometry x="30" y="50" width="30" height="20" as="geometry" />
        </mxCell>
        <mxCell id="qfDgIEm7hBESt5WeCxpF-167" value="" style="rounded=0;whiteSpace=wrap;html=1;" vertex="1" parent="qfDgIEm7hBESt5WeCxpF-160">
          <mxGeometry x="60" y="50" width="30" height="20" as="geometry" />
        </mxCell>
        <mxCell id="qfDgIEm7hBESt5WeCxpF-168" value="" style="group" vertex="1" connectable="0" parent="qfDgIEm7hBESt5WeCxpF-79">
          <mxGeometry x="115" y="115" width="90" height="70" as="geometry" />
        </mxCell>
        <mxCell id="qfDgIEm7hBESt5WeCxpF-169" value="fact" style="rounded=0;whiteSpace=wrap;html=1;" vertex="1" parent="qfDgIEm7hBESt5WeCxpF-168">
          <mxGeometry width="90" height="30" as="geometry" />
        </mxCell>
        <mxCell id="qfDgIEm7hBESt5WeCxpF-170" value="" style="rounded=0;whiteSpace=wrap;html=1;" vertex="1" parent="qfDgIEm7hBESt5WeCxpF-168">
          <mxGeometry y="30" width="30" height="20" as="geometry" />
        </mxCell>
        <mxCell id="qfDgIEm7hBESt5WeCxpF-171" value="" style="rounded=0;whiteSpace=wrap;html=1;" vertex="1" parent="qfDgIEm7hBESt5WeCxpF-168">
          <mxGeometry x="30" y="30" width="30" height="20" as="geometry" />
        </mxCell>
        <mxCell id="qfDgIEm7hBESt5WeCxpF-172" value="" style="rounded=0;whiteSpace=wrap;html=1;" vertex="1" parent="qfDgIEm7hBESt5WeCxpF-168">
          <mxGeometry x="60" y="30" width="30" height="20" as="geometry" />
        </mxCell>
        <mxCell id="qfDgIEm7hBESt5WeCxpF-173" value="" style="rounded=0;whiteSpace=wrap;html=1;" vertex="1" parent="qfDgIEm7hBESt5WeCxpF-168">
          <mxGeometry y="50" width="30" height="20" as="geometry" />
        </mxCell>
        <mxCell id="qfDgIEm7hBESt5WeCxpF-174" value="" style="rounded=0;whiteSpace=wrap;html=1;" vertex="1" parent="qfDgIEm7hBESt5WeCxpF-168">
          <mxGeometry x="30" y="50" width="30" height="20" as="geometry" />
        </mxCell>
        <mxCell id="qfDgIEm7hBESt5WeCxpF-175" value="" style="rounded=0;whiteSpace=wrap;html=1;" vertex="1" parent="qfDgIEm7hBESt5WeCxpF-168">
          <mxGeometry x="60" y="50" width="30" height="20" as="geometry" />
        </mxCell>
        <mxCell id="qfDgIEm7hBESt5WeCxpF-177" style="edgeStyle=orthogonalEdgeStyle;rounded=0;orthogonalLoop=1;jettySize=auto;html=1;exitX=1;exitY=0.5;exitDx=0;exitDy=0;entryX=0.25;entryY=0;entryDx=0;entryDy=0;curved=1;endArrow=none;startFill=0;" edge="1" parent="qfDgIEm7hBESt5WeCxpF-79" source="qfDgIEm7hBESt5WeCxpF-104" target="qfDgIEm7hBESt5WeCxpF-169">
          <mxGeometry relative="1" as="geometry" />
        </mxCell>
        <mxCell id="qfDgIEm7hBESt5WeCxpF-179" style="edgeStyle=orthogonalEdgeStyle;rounded=0;orthogonalLoop=1;jettySize=auto;html=1;entryX=1;entryY=1;entryDx=0;entryDy=0;curved=1;endArrow=none;startFill=0;" edge="1" parent="qfDgIEm7hBESt5WeCxpF-79" source="qfDgIEm7hBESt5WeCxpF-161" target="qfDgIEm7hBESt5WeCxpF-174">
          <mxGeometry relative="1" as="geometry" />
        </mxCell>
        <mxCell id="qfDgIEm7hBESt5WeCxpF-180" style="edgeStyle=orthogonalEdgeStyle;rounded=0;orthogonalLoop=1;jettySize=auto;html=1;exitX=1;exitY=0.5;exitDx=0;exitDy=0;entryX=0;entryY=1;entryDx=0;entryDy=0;curved=1;endArrow=none;startFill=0;" edge="1" parent="qfDgIEm7hBESt5WeCxpF-79" source="qfDgIEm7hBESt5WeCxpF-145" target="qfDgIEm7hBESt5WeCxpF-174">
          <mxGeometry relative="1" as="geometry" />
        </mxCell>
        <mxCell id="qfDgIEm7hBESt5WeCxpF-152" value="" style="group" vertex="1" connectable="0" parent="qfDgIEm7hBESt5WeCxpF-79">
          <mxGeometry x="210" y="35" width="90" height="70" as="geometry" />
        </mxCell>
        <mxCell id="qfDgIEm7hBESt5WeCxpF-153" value="dim" style="rounded=0;whiteSpace=wrap;html=1;" vertex="1" parent="qfDgIEm7hBESt5WeCxpF-152">
          <mxGeometry width="90" height="30" as="geometry" />
        </mxCell>
        <mxCell id="qfDgIEm7hBESt5WeCxpF-154" value="" style="rounded=0;whiteSpace=wrap;html=1;" vertex="1" parent="qfDgIEm7hBESt5WeCxpF-152">
          <mxGeometry y="30" width="30" height="20" as="geometry" />
        </mxCell>
        <mxCell id="qfDgIEm7hBESt5WeCxpF-155" value="" style="rounded=0;whiteSpace=wrap;html=1;" vertex="1" parent="qfDgIEm7hBESt5WeCxpF-152">
          <mxGeometry x="30" y="30" width="30" height="20" as="geometry" />
        </mxCell>
        <mxCell id="qfDgIEm7hBESt5WeCxpF-156" value="" style="rounded=0;whiteSpace=wrap;html=1;" vertex="1" parent="qfDgIEm7hBESt5WeCxpF-152">
          <mxGeometry x="60" y="30" width="30" height="20" as="geometry" />
        </mxCell>
        <mxCell id="qfDgIEm7hBESt5WeCxpF-157" value="" style="rounded=0;whiteSpace=wrap;html=1;" vertex="1" parent="qfDgIEm7hBESt5WeCxpF-152">
          <mxGeometry y="50" width="30" height="20" as="geometry" />
        </mxCell>
        <mxCell id="qfDgIEm7hBESt5WeCxpF-158" value="" style="rounded=0;whiteSpace=wrap;html=1;" vertex="1" parent="qfDgIEm7hBESt5WeCxpF-152">
          <mxGeometry x="30" y="50" width="30" height="20" as="geometry" />
        </mxCell>
        <mxCell id="qfDgIEm7hBESt5WeCxpF-159" value="" style="rounded=0;whiteSpace=wrap;html=1;" vertex="1" parent="qfDgIEm7hBESt5WeCxpF-152">
          <mxGeometry x="60" y="50" width="30" height="20" as="geometry" />
        </mxCell>
        <mxCell id="qfDgIEm7hBESt5WeCxpF-176" style="edgeStyle=orthogonalEdgeStyle;rounded=0;orthogonalLoop=1;jettySize=auto;html=1;exitX=0;exitY=0.5;exitDx=0;exitDy=0;entryX=0.75;entryY=0;entryDx=0;entryDy=0;curved=1;endArrow=none;startFill=0;" edge="1" parent="qfDgIEm7hBESt5WeCxpF-79" source="qfDgIEm7hBESt5WeCxpF-153" target="qfDgIEm7hBESt5WeCxpF-169">
          <mxGeometry relative="1" as="geometry" />
        </mxCell>
        <mxCell id="qfDgIEm7hBESt5WeCxpF-181" style="edgeStyle=orthogonalEdgeStyle;rounded=0;orthogonalLoop=1;jettySize=auto;html=1;exitX=1;exitY=0.5;exitDx=0;exitDy=0;entryX=0;entryY=0.5;entryDx=0;entryDy=0;curved=1;" edge="1" parent="1" source="qfDgIEm7hBESt5WeCxpF-62" target="qfDgIEm7hBESt5WeCxpF-79">
          <mxGeometry relative="1" as="geometry" />
        </mxCell>
        <mxCell id="qfDgIEm7hBESt5WeCxpF-204" value="" style="group" vertex="1" connectable="0" parent="1">
          <mxGeometry x="1400" y="218" width="170" height="62" as="geometry" />
        </mxCell>
        <mxCell id="qfDgIEm7hBESt5WeCxpF-192" value="" style="rounded=0;whiteSpace=wrap;html=1;" vertex="1" parent="qfDgIEm7hBESt5WeCxpF-204">
          <mxGeometry width="170" height="62" as="geometry" />
        </mxCell>
        <mxCell id="qfDgIEm7hBESt5WeCxpF-193" value="Workspace 1" style="text;html=1;align=left;verticalAlign=middle;whiteSpace=wrap;rounded=0;fontSize=11;" vertex="1" parent="qfDgIEm7hBESt5WeCxpF-204">
          <mxGeometry x="9" width="100" height="30" as="geometry" />
        </mxCell>
        <mxCell id="qfDgIEm7hBESt5WeCxpF-194" value="Report 1&lt;div&gt;Report 2&lt;/div&gt;" style="text;html=1;align=center;verticalAlign=middle;whiteSpace=wrap;rounded=0;" vertex="1" parent="qfDgIEm7hBESt5WeCxpF-204">
          <mxGeometry x="24.5" y="22" width="121" height="30" as="geometry" />
        </mxCell>
        <mxCell id="qfDgIEm7hBESt5WeCxpF-198" value="" style="shape=image;verticalLabelPosition=bottom;labelBackgroundColor=default;verticalAlign=top;aspect=fixed;imageAspect=0;image=https://static-00.iconduck.com/assets.00/power-bi-icon-1536x2048-0xah5g2o.png;" vertex="1" parent="qfDgIEm7hBESt5WeCxpF-204">
          <mxGeometry x="20" y="30" width="15" height="20" as="geometry" />
        </mxCell>
        <mxCell id="qfDgIEm7hBESt5WeCxpF-205" value="" style="group" vertex="1" connectable="0" parent="1">
          <mxGeometry x="1400" y="319" width="170" height="62" as="geometry" />
        </mxCell>
        <mxCell id="qfDgIEm7hBESt5WeCxpF-183" value="" style="rounded=0;whiteSpace=wrap;html=1;" vertex="1" parent="qfDgIEm7hBESt5WeCxpF-205">
          <mxGeometry width="170" height="62" as="geometry" />
        </mxCell>
        <mxCell id="qfDgIEm7hBESt5WeCxpF-186" value="Workspace 2" style="text;html=1;align=left;verticalAlign=middle;whiteSpace=wrap;rounded=0;fontSize=11;" vertex="1" parent="qfDgIEm7hBESt5WeCxpF-205">
          <mxGeometry x="9" width="100" height="30" as="geometry" />
        </mxCell>
        <mxCell id="qfDgIEm7hBESt5WeCxpF-190" value="Report 1&lt;div&gt;Report 2&lt;/div&gt;" style="text;html=1;align=center;verticalAlign=middle;whiteSpace=wrap;rounded=0;" vertex="1" parent="qfDgIEm7hBESt5WeCxpF-205">
          <mxGeometry x="24.5" y="22" width="121" height="30" as="geometry" />
        </mxCell>
        <mxCell id="qfDgIEm7hBESt5WeCxpF-199" value="" style="shape=image;verticalLabelPosition=bottom;labelBackgroundColor=default;verticalAlign=top;aspect=fixed;imageAspect=0;image=https://static-00.iconduck.com/assets.00/power-bi-icon-1536x2048-0xah5g2o.png;" vertex="1" parent="qfDgIEm7hBESt5WeCxpF-205">
          <mxGeometry x="20" y="30" width="15" height="20" as="geometry" />
        </mxCell>
        <mxCell id="qfDgIEm7hBESt5WeCxpF-206" value="" style="group" vertex="1" connectable="0" parent="1">
          <mxGeometry x="1400" y="418" width="170" height="62" as="geometry" />
        </mxCell>
        <mxCell id="qfDgIEm7hBESt5WeCxpF-195" value="" style="rounded=0;whiteSpace=wrap;html=1;" vertex="1" parent="qfDgIEm7hBESt5WeCxpF-206">
          <mxGeometry width="170" height="62" as="geometry" />
        </mxCell>
        <mxCell id="qfDgIEm7hBESt5WeCxpF-196" value="Workspace 3" style="text;html=1;align=left;verticalAlign=middle;whiteSpace=wrap;rounded=0;fontSize=11;" vertex="1" parent="qfDgIEm7hBESt5WeCxpF-206">
          <mxGeometry x="9" width="100" height="30" as="geometry" />
        </mxCell>
        <mxCell id="qfDgIEm7hBESt5WeCxpF-197" value="Report 1&lt;div&gt;Report 2&lt;/div&gt;" style="text;html=1;align=center;verticalAlign=middle;whiteSpace=wrap;rounded=0;" vertex="1" parent="qfDgIEm7hBESt5WeCxpF-206">
          <mxGeometry x="24.5" y="22" width="121" height="30" as="geometry" />
        </mxCell>
        <mxCell id="qfDgIEm7hBESt5WeCxpF-200" value="" style="shape=image;verticalLabelPosition=bottom;labelBackgroundColor=default;verticalAlign=top;aspect=fixed;imageAspect=0;image=https://static-00.iconduck.com/assets.00/power-bi-icon-1536x2048-0xah5g2o.png;" vertex="1" parent="qfDgIEm7hBESt5WeCxpF-206">
          <mxGeometry x="20" y="30" width="15" height="20" as="geometry" />
        </mxCell>
        <mxCell id="qfDgIEm7hBESt5WeCxpF-210" style="edgeStyle=orthogonalEdgeStyle;rounded=0;orthogonalLoop=1;jettySize=auto;html=1;exitX=1;exitY=0.5;exitDx=0;exitDy=0;entryX=0;entryY=0.5;entryDx=0;entryDy=0;curved=1;" edge="1" parent="1" source="qfDgIEm7hBESt5WeCxpF-208" target="qfDgIEm7hBESt5WeCxpF-25">
          <mxGeometry relative="1" as="geometry" />
        </mxCell>
        <mxCell id="qfDgIEm7hBESt5WeCxpF-208" value="Gatekeeper" style="rounded=0;fontSize=12;fontColor=#000000;labelBackgroundColor=none;labelBorderColor=none;whiteSpace=wrap;" vertex="1" parent="1">
          <mxGeometry x="60" y="560" width="120" height="30" as="geometry" />
        </mxCell>
        <mxCell id="qfDgIEm7hBESt5WeCxpF-211" style="edgeStyle=orthogonalEdgeStyle;rounded=0;orthogonalLoop=1;jettySize=auto;html=1;exitX=1;exitY=0.5;exitDx=0;exitDy=0;entryX=0;entryY=0.5;entryDx=0;entryDy=0;curved=1;" edge="1" parent="1" source="qfDgIEm7hBESt5WeCxpF-209" target="qfDgIEm7hBESt5WeCxpF-25">
          <mxGeometry relative="1" as="geometry" />
        </mxCell>
        <mxCell id="qfDgIEm7hBESt5WeCxpF-209" value="Grand Avenue" style="rounded=0;fontSize=12;fontColor=#000000;labelBackgroundColor=none;labelBorderColor=none;whiteSpace=wrap;" vertex="1" parent="1">
          <mxGeometry x="60" y="600" width="120" height="30" as="geometry" />
        </mxCell>
        <mxCell id="qfDgIEm7hBESt5WeCxpF-216" style="edgeStyle=orthogonalEdgeStyle;rounded=0;orthogonalLoop=1;jettySize=auto;html=1;exitX=1;exitY=0.5;exitDx=0;exitDy=0;entryX=0;entryY=0.5;entryDx=0;entryDy=0;curved=1;" edge="1" parent="1" source="qfDgIEm7hBESt5WeCxpF-212" target="qfDgIEm7hBESt5WeCxpF-59">
          <mxGeometry relative="1" as="geometry" />
        </mxCell>
        <mxCell id="qfDgIEm7hBESt5WeCxpF-212" value="lh__gatekeeper" style="rounded=0;fontSize=12;fontColor=#000000;labelBackgroundColor=none;labelBorderColor=none;whiteSpace=wrap;" vertex="1" parent="1">
          <mxGeometry x="490" y="560" width="120" height="30" as="geometry" />
        </mxCell>
        <mxCell id="qfDgIEm7hBESt5WeCxpF-217" style="edgeStyle=orthogonalEdgeStyle;rounded=0;orthogonalLoop=1;jettySize=auto;html=1;exitX=1;exitY=0.5;exitDx=0;exitDy=0;entryX=0;entryY=0.5;entryDx=0;entryDy=0;curved=1;" edge="1" parent="1" source="qfDgIEm7hBESt5WeCxpF-213" target="qfDgIEm7hBESt5WeCxpF-59">
          <mxGeometry relative="1" as="geometry" />
        </mxCell>
        <mxCell id="qfDgIEm7hBESt5WeCxpF-213" value="lh__grand_avenue" style="rounded=0;fontSize=12;fontColor=#000000;labelBackgroundColor=none;labelBorderColor=none;whiteSpace=wrap;" vertex="1" parent="1">
          <mxGeometry x="490" y="600" width="120" height="30" as="geometry" />
        </mxCell>
      </root>
    </mxGraphModel>
  </diagram>
</mxfile>
